<?xml version="1.0" standalone="no"?>
<!DOCTYPE svg PUBLIC "-//W3C//DTD SVG 20010904//EN"
 "http://www.w3.org/TR/2001/REC-SVG-20010904/DTD/svg10.dtd">
<svg version="1.0" xmlns="http://www.w3.org/2000/svg"
 width="70.000000pt" height="70.000000pt" viewBox="0 0 70.000000 70.000000"
 preserveAspectRatio="xMidYMid meet">
<metadata>
Created by potrace 1.14, written by Peter Selinger 2001-2017
</metadata>
<g transform="translate(0.000000,70.000000) scale(0.100000,-0.100000)"
fill="#000000" stroke="none">
<path d="M205 666 c-139 -15 -139 -15 -133 -112 5 -72 3 -82 -19 -111 -24 -31
-24 -34 -21 -208 l3 -176 35 -29 35 -29 245 -1 c242 0 245 0 272 23 42 36 48
66 48 234 l0 156 -35 43 c-20 25 -31 45 -25 49 5 3 10 33 10 65 0 96 -30 111
-215 108 -55 0 -145 -6 -200 -12z"/>
</g>
</svg>
